<svg width="46" height="28" viewBox="0 0 46 28" fill="none" xmlns="http://www.w3.org/2000/svg">
<path d="M45.3203 1.895C45.092 1.34521 44.6551 0.908318 44.1053 0.68C43.8348 0.564708 43.5444 0.503555 43.2503 0.5H32.0003C31.4036 0.5 30.8313 0.737053 30.4094 1.15901C29.9874 1.58097 29.7503 2.15326 29.7503 2.75C29.7503 3.34674 29.9874 3.91903 30.4094 4.34099C30.8313 4.76295 31.4036 5 32.0003 5H37.8278L25.2503 17.5775L17.8478 10.1525C17.6387 9.94161 17.3898 9.77422 17.1156 9.66C16.8415 9.54576 16.5474 9.48695 16.2503 9.48695C15.9533 9.48695 15.6592 9.54576 15.385 9.66C15.1109 9.77422 14.862 9.94161 14.6528 10.1525L1.15285 23.6525C0.941962 23.8617 0.774575 24.1105 0.660345 24.3847C0.546116 24.6589 0.487305 24.953 0.487305 25.25C0.487305 25.547 0.546116 25.8411 0.660345 26.1153C0.774575 26.3895 0.941962 26.6383 1.15285 26.8475C1.36202 27.0584 1.61087 27.2258 1.88505 27.34C2.15924 27.4542 2.45332 27.513 2.75035 27.513C3.04738 27.513 3.34146 27.4542 3.61565 27.34C3.88983 27.2258 4.13868 27.0584 4.34785 26.8475L16.2503 14.9225L23.6528 22.3475C23.862 22.5584 24.1109 22.7258 24.385 22.84C24.6592 22.9542 24.9533 23.013 25.2503 23.013C25.5474 23.013 25.8415 22.9542 26.1156 22.84C26.3898 22.7258 26.6387 22.5584 26.8478 22.3475L41.0003 8.1725V14C41.0003 14.5967 41.2374 15.169 41.6594 15.591C42.0813 16.0129 42.6536 16.25 43.2503 16.25C43.8471 16.25 44.4194 16.0129 44.8413 15.591C45.2633 15.169 45.5003 14.5967 45.5003 14V2.75C45.4968 2.45598 45.4356 2.1655 45.3203 1.895Z" fill="#009AAD"/>
</svg>
