<svg width="161" height="162" viewBox="0 0 161 162" fill="none" xmlns="http://www.w3.org/2000/svg">
<path d="M65.5748 0.949956C54.2955 0.945589 43.2112 3.89112 33.422 9.49418C23.6328 15.0972 15.4792 23.163 9.7704 32.8909C4.0616 42.6188 0.996145 53.6706 0.8783 64.9492C0.760455 76.2279 3.59432 87.3413 9.09861 97.1864L1.18836 117.902C0.529959 119.624 0.362948 121.495 0.705958 123.307C1.04897 125.118 1.88851 126.799 3.13092 128.161C4.37334 129.523 5.96976 130.513 7.7421 131.021C9.51443 131.529 11.393 131.534 13.1682 131.036L37.9138 124.101C46.6793 128.243 56.2637 130.361 65.9581 130.299C75.6526 130.236 85.209 127.996 93.9207 123.742C102.632 119.488 110.276 113.331 116.287 105.724C122.298 98.1178 126.522 89.2575 128.646 79.7985C130.771 70.3395 130.742 60.5239 128.561 51.0777C126.381 41.6314 122.104 32.7963 116.048 25.2257C109.993 17.6551 102.312 11.5428 93.5757 7.34077C84.839 3.13878 75.2695 0.954663 65.5748 0.949956V0.949956ZM65.4952 39.7649C61.9331 40.4614 58.0327 42.7698 54.9681 48.1826C54.6454 48.751 54.2138 49.2503 53.6981 49.6519C53.1824 50.0535 52.5927 50.3496 51.9626 50.5233C51.3324 50.697 50.6743 50.7449 50.0256 50.6642C49.377 50.5836 48.7506 50.3759 48.1822 50.0532C47.6138 49.7305 47.1146 49.2989 46.7129 48.7832C46.3113 48.2675 46.0152 47.6778 45.8415 47.0477C45.6678 46.4175 45.6199 45.7594 45.7006 45.1107C45.7812 44.4621 45.9889 43.8357 46.3116 43.2673C50.6996 35.5461 56.9382 31.2975 63.5848 30.004C69.7692 28.8349 76.1658 30.1235 81.4152 33.5959C86.231 36.7799 90.1215 41.9838 90.2409 48.2224C90.3702 54.7397 86.4101 60.6201 79.1068 64.9384C74.1517 67.8637 72.2214 69.8537 71.3956 71.1771C70.6991 72.2915 70.5498 73.3064 70.5498 75.575C70.5498 76.8944 70.0257 78.1598 69.0927 79.0928C68.1597 80.0258 66.8943 80.55 65.5748 80.55C64.2554 80.55 62.9899 80.0258 62.0569 79.0928C61.124 78.1598 60.5998 76.8944 60.5998 75.575C60.5998 72.8686 60.7391 69.5055 62.958 65.9235C65.0475 62.5703 68.6195 59.5853 74.0522 56.3715C79.3755 53.2173 80.3406 50.2224 80.3108 48.4314C80.271 46.3717 78.8979 43.8544 75.9328 41.8942C72.8628 39.8632 69.1256 39.1001 65.5052 39.7649H65.4952ZM68.0524 105.425C66.0732 105.425 64.1751 104.639 62.7756 103.239C61.3761 101.84 60.5899 99.9416 60.5899 97.9625C60.5899 95.9833 61.3761 94.0852 62.7756 92.6857C64.1751 91.2862 66.0732 90.5 68.0524 90.5C70.0315 90.5 71.9297 91.2862 73.3291 92.6857C74.7286 94.0852 75.5149 95.9833 75.5149 97.9625C75.5149 99.9416 74.7286 101.84 73.3291 103.239C71.9297 104.639 70.0315 105.425 68.0524 105.425V105.425ZM46.0231 137.663C52.0885 144.726 59.6105 150.393 68.0727 154.274C76.5349 158.156 85.7368 160.16 95.0467 160.15C104.927 160.15 114.31 157.931 122.708 153.951L147.443 160.886C149.219 161.384 151.097 161.379 152.869 160.871C154.642 160.363 156.238 159.373 157.481 158.011C158.723 156.649 159.563 154.968 159.906 153.157C160.249 151.345 160.082 149.474 159.423 147.752L151.513 127.036C156.908 117.393 159.735 106.525 159.722 95.475C159.722 76.172 151.264 58.8391 137.842 46.9886C139.313 52.7192 140.098 58.6045 140.18 64.5205C146.23 73.3263 149.772 83.9927 149.772 95.475C149.772 105.922 146.846 115.683 141.762 123.992L140.488 126.081L150.14 151.304L121.683 143.344L119.942 144.22C112.479 148.041 104.022 150.2 95.0467 150.2C83.7627 150.217 72.7518 146.73 63.5351 140.22C57.617 140.065 51.7383 139.207 46.0231 137.663V137.663Z" fill="#009AAD"/>
</svg>
